# xmcd
#
# Track frame offsets:
#	150
#	13580
#	26037
#	38347
#	49182
#	60785
#	72395
#	85360
#	97240
#	110229
#	120815
#	132590
#	145622
#	159427
#
# Disc length: 2321 seconds
#
# Revision: 0
# Processed by: cddbd v1.5.1PL0 Copyright (c) Steve Scherf et al.
# Submitted via: dBpowerAMP V4.0
#
DISCID=b7090f0e
DTITLE=The Stanley Brothers And The Clinch Mountain Boys - I'm A Man Of Constant Sorrow
DYEAR=1900
DGENRE=Blue Grass
TTITLE0=I'm A Man Of Constant Sorrow
TTITLE1=The Lonesome River
TTITLE2=Hey Hey Hey
TTITLE3=Sweetest Love
TTITLE4=The Wandering Boy
TTITLE5=The Fields Have Turned To Brown
TTITLE6=Pretty Polly
TTITLE7=The Drunkard's Hell
TTITLE8=Too Late To Cry
TTITLE9=The Old Home
TTITLE10=We'll Be Sweethearts In Heaven
TTITLE11=Gathering Flowers For The Master's Bouquet
TTITLE12=The Angels Are Singing (In Heaven Tonight)
TTITLE13=The White Dove
EXTD=The Stanley Brothers and the Clinch Mountain Boys
EXTT0=
EXTT1=
EXTT2=
EXTT3=
EXTT4=
EXTT5=
EXTT6=
EXTT7=
EXTT8=
EXTT9=
EXTT10=
EXTT11=
EXTT12=
EXTT13=
PLAYORDER=
